# xmcd
#
# Track frame offsets: 
#        150
#        14400
#        26775
#        40992
#        56322
#        67348
#        85531
#        94306
#        104337
#        119989
#
# Disc length: 1744 seconds
#
# Revision: 0
# Processed by: cddbd v1.5.2PL0 Copyright (c) Steve Scherf et al.
# Submitted via: ExactAudioCopy v0.95b4
#
DISCID=8b06ce0a
DTITLE=George Thorogood and The Destroyers - Better Than The Rest
DYEAR=1979
DGENRE=Blues, Rock
TTITLE0=In The Night Time
TTITLE1=I'm Ready
TTITLE2=Goodbye Baby
TTITLE3=Howlin' For My Darling
TTITLE4=My Weakness
TTITLE5=Nadine
TTITLE6=My Way
TTITLE7=You're Gonna Miss Me
TTITLE8=Worried About My Baby
TTITLE9=Huckle Up Baby
EXTD=
EXTT0=
EXTT1=
EXTT2=
EXTT3=
EXTT4=
EXTT5=
EXTT6=
EXTT7=
EXTT8=
EXTT9=
PLAYORDER=
